<?xml version="1.0" standalone="no"?>
<!DOCTYPE svg PUBLIC "-//W3C//DTD SVG 20010904//EN"
 "http://www.w3.org/TR/2001/REC-SVG-20010904/DTD/svg10.dtd">
<svg version="1.0" xmlns="http://www.w3.org/2000/svg"
 width="417.000000pt" height="417.000000pt" viewBox="0 0 417.000000 417.000000"
 preserveAspectRatio="xMidYMid meet">

<g transform="translate(0.000000,417.000000) scale(0.100000,-0.100000)"
fill="#000000" stroke="none">
<path d="M1367 4005 c-22 -7 -49 -23 -61 -34 -12 -12 -27 -21 -32 -21 -6 0
-20 -10 -31 -22 -28 -31 -65 -58 -78 -58 -20 0 -168 -168 -220 -250 -13 -19
-37 -48 -55 -65 -156 -146 -210 -224 -300 -436 -29 -68 -67 -144 -83 -168
l-30 -45 24 -15 c13 -9 41 -31 61 -49 21 -19 58 -42 84 -51 41 -16 52 -17 90
-5 23 7 44 10 47 7 3 -3 15 -2 27 2 17 5 19 10 10 20 -18 21 6 85 31 85 21 0
48 -46 42 -72 -3 -10 0 -18 6 -18 6 0 11 8 11 18 0 10 4 22 10 28 5 5 20 38
34 74 37 98 50 120 63 115 7 -2 15 6 19 19 3 13 15 28 27 33 75 34 100 43 108
37 6 -3 20 3 32 13 36 33 79 45 111 33 15 -5 31 -8 35 -6 11 7 56 17 151 32
63 10 86 11 91 2 6 -9 12 -8 25 3 13 11 18 11 21 2 7 -19 40 -16 47 3 5 13 16
15 52 11 25 -2 62 0 82 5 20 6 69 14 107 19 96 12 119 16 125 18 3 1 30 5 60
8 53 6 85 7 140 4 14 -1 42 1 63 5 20 3 43 2 50 -3 11 -8 165 -2 192 8 6 2 56
-3 112 -10 83 -11 107 -12 132 -1 17 7 28 16 25 21 -3 5 -10 6 -16 3 -6 -4 -8
-2 -4 4 7 12 -110 216 -160 277 -197 242 -307 291 -664 296 -58 1 -108 6 -111
12 -4 5 -29 12 -55 15 -27 2 -53 11 -59 19 -7 10 -32 15 -78 15 -47 1 -67 5
-67 14 0 7 6 14 13 17 23 8 -2 20 -70 33 -87 17 -138 17 -186 -1z"/>
<path d="M2171 2496 c-6 -7 -6 -18 -2 -25 7 -11 16 -11 38 -3 19 6 36 6 47 0
21 -12 34 -2 19 13 -18 18 -91 28 -102 15z"/>
<path d="M2420 2470 c-93 -5 -94 -5 -40 -12 30 -4 70 -8 89 -8 19 0 63 -7 98
-16 75 -19 110 -13 74 12 -30 22 -108 30 -221 24z"/>
<path d="M1925 2450 c-3 -5 -15 -10 -25 -10 -10 0 -20 -5 -22 -12 -3 -7 -10
-8 -17 -4 -22 14 -100 13 -105 -1 -3 -7 -12 -13 -21 -13 -8 0 -15 -4 -15 -10
0 -5 -17 -9 -37 -9 -49 2 -136 -21 -146 -38 -6 -10 -12 -10 -28 0 -18 10 -24
8 -48 -19 -16 -18 -37 -37 -47 -43 -18 -10 -18 -10 2 -11 12 0 27 7 34 15 7 8
22 15 34 15 12 0 27 5 33 11 13 13 60 25 206 56 15 3 27 10 27 15 0 6 6 6 14
-1 11 -10 24 -9 58 2 24 8 63 17 88 21 53 8 75 19 66 35 -9 14 -43 14 -51 1z"/>
<path d="M2683 2433 c9 -2 25 -2 35 0 9 3 1 5 -18 5 -19 0 -27 -2 -17 -5z"/>
<path d="M2790 2430 c0 -12 40 -33 48 -25 4 4 -2 13 -12 21 -23 16 -36 18 -36
4z"/>
<path d="M1245 2210 c-9 -27 1 -40 30 -40 25 0 51 33 40 50 -12 19 -63 11 -70
-10z"/>
<path d="M2450 2190 c0 -10 -16 -41 -35 -70 l-35 -52 29 -27 c16 -14 35 -43
42 -63 7 -21 16 -38 19 -38 4 0 23 -16 43 -36 33 -34 37 -35 52 -20 18 17 137
76 155 76 5 0 10 9 10 20 0 24 28 40 69 40 30 0 41 -13 22 -24 -11 -7 -2 -46
10 -46 5 0 23 -13 41 -30 17 -16 35 -30 40 -30 5 0 6 -4 3 -10 -3 -5 -3 -16 2
-22 22 -36 -1 -85 -35 -73 -8 3 -12 0 -10 -6 2 -7 19 -14 38 -16 45 -4 64 -23
25 -23 -54 0 -61 -17 -11 -24 26 -4 44 -12 41 -17 -4 -5 3 -22 15 -39 18 -26
19 -34 9 -73 -9 -38 -8 -49 6 -71 10 -14 26 -26 36 -26 16 0 19 8 20 53 l2 52
8 -40 c4 -22 13 -65 18 -95 22 -117 29 -140 54 -183 28 -47 80 -97 101 -97 23
0 46 36 46 69 0 28 -3 33 -19 28 -19 -5 -31 10 -31 39 0 11 6 11 26 3 25 -9
26 -8 13 8 -8 10 -17 20 -20 23 -3 3 -25 33 -48 66 -22 34 -48 67 -56 74 -8 7
-15 18 -15 25 0 7 -7 15 -15 19 -17 6 -20 39 -6 65 7 12 5 27 -5 46 -8 15 -12
37 -9 49 3 12 2 15 -1 8 -7 -15 -24 -6 -24 14 0 8 -8 26 -17 40 -15 23 -18 24
-28 10 -10 -13 -14 -10 -23 23 -16 51 -26 143 -13 116 5 -11 12 -28 15 -38 5
-15 9 -16 26 -5 22 14 27 30 8 26 -6 -2 -17 7 -23 19 -7 13 -20 32 -30 43 -10
11 -15 23 -11 27 4 4 10 3 14 -3 4 -6 16 -14 27 -18 16 -6 18 -5 8 5 -17 17
-17 32 0 26 25 -10 11 34 -19 58 -34 28 -57 34 -26 6 27 -22 28 -41 5 -42 -77
-4 -121 5 -200 43 -35 17 -67 27 -74 22 -8 -5 -10 -3 -4 6 5 9 2 10 -13 6 -14
-5 -25 0 -35 15 -9 11 -20 18 -26 15 -5 -4 -15 2 -21 14 -6 11 -18 19 -28 18
-40 -3 -50 2 -45 22 6 24 -18 27 -37 4 -8 -8 -23 -20 -34 -26 -20 -10 -20 -9
2 14 27 30 28 43 2 45 -13 1 -20 -4 -20 -17z m188 -109 c38 -20 83 -61 65 -61
-5 0 -18 10 -29 21 -10 12 -37 30 -59 40 -22 10 -34 18 -27 18 7 1 29 -8 50
-18z m399 -368 c0 -15 6 -29 12 -31 6 -2 11 -9 11 -16 0 -8 9 -25 21 -40 11
-14 17 -30 14 -36 -7 -12 -26 -14 -22 -2 1 4 -2 8 -7 9 -26 4 -67 143 -42 143
6 0 12 -12 13 -27z"/>
<path d="M2161 2114 c0 -11 3 -14 6 -6 3 7 2 16 -1 19 -3 4 -6 -2 -5 -13z"/>
<path d="M1690 2092 c0 -4 5 -13 12 -20 9 -9 5 -12 -17 -12 -27 0 -95 -32 -95
-45 0 -3 16 1 35 9 53 22 42 4 -22 -39 -54 -36 -56 -36 -40 -12 24 36 10 34
-38 -7 l-40 -34 25 -21 c39 -35 122 -71 160 -71 56 0 101 29 117 74 7 22 20
47 28 57 13 13 14 21 4 43 -7 14 -21 29 -32 32 -11 4 -32 17 -46 30 -25 24
-51 32 -51 16z"/>
<path d="M2937 2039 c7 -7 15 -10 18 -7 3 3 -2 9 -12 12 -14 6 -15 5 -6 -5z"/>
<path d="M3349 1973 c15 -29 72 -83 87 -83 24 0 16 16 -31 59 -47 43 -73 54
-56 24z"/>
<path d="M1121 1903 c-1 -6 -4 -20 -7 -30 -5 -17 -5 -17 6 0 6 10 9 23 6 30
-3 9 -5 9 -5 0z"/>
<path d="M1216 1881 c-12 -44 -17 -82 -11 -91 4 -6 8 -50 11 -98 2 -48 9 -111
15 -141 8 -41 8 -55 -1 -61 -7 -4 -17 -47 -22 -96 -6 -49 -16 -100 -23 -114
-23 -44 -41 -177 -28 -210 10 -26 8 -31 -15 -46 l-26 -17 34 -28 c19 -16 36
-25 39 -21 4 4 15 12 26 18 34 18 74 105 86 188 6 42 15 76 20 76 5 0 9 -7 9
-15 0 -14 18 -20 50 -15 29 4 55 60 27 60 -7 0 -12 13 -12 32 0 24 -6 35 -25
45 -18 9 -20 13 -8 13 14 0 16 5 9 23 -5 12 -7 39 -6 60 2 20 -1 37 -6 37 -5
0 -8 3 -8 8 1 4 0 9 -1 12 -7 17 -5 50 2 50 5 0 0 13 -11 28 -15 22 -17 32 -9
40 9 9 9 12 1 12 -15 0 -4 40 14 47 8 3 10 10 5 17 -10 14 -3 105 13 155 4 15
2 21 -9 21 -9 0 -13 6 -10 14 4 11 -9 13 -60 13 -51 -1 -67 -4 -70 -16z m34
-171 c0 -5 -5 -10 -11 -10 -5 0 -7 5 -4 10 3 6 8 10 11 10 2 0 4 -4 4 -10z
m-50 -700 c0 -5 -7 -7 -15 -4 -8 4 -15 8 -15 10 0 2 7 4 15 4 8 0 15 -4 15
-10z"/>
<path d="M1111 1799 c-14 -39 -14 -59 -1 -59 5 0 12 12 16 28 3 15 8 35 11 45
8 30 -15 18 -26 -14z"/>
<path d="M1051 1738 c-5 -13 -11 -34 -15 -48 -6 -19 -5 -21 3 -10 6 9 11 10
11 3 0 -6 3 -19 7 -29 4 -12 3 -15 -5 -10 -9 5 -12 -5 -10 -38 0 -25 3 -46 5
-46 6 0 41 85 41 100 0 8 3 28 7 44 7 25 6 28 -10 22 -14 -5 -16 -2 -12 14 7
27 -11 25 -22 -2z"/>
<path d="M3254 1695 c-16 -40 -18 -69 -4 -60 5 3 7 0 4 -9 -3 -8 -2 -21 2 -28
6 -9 10 -5 14 12 4 16 14 26 28 28 12 2 22 7 22 12 0 17 -34 80 -42 80 -5 0
-16 -16 -24 -35z"/>
<path d="M1121 1694 c0 -11 3 -14 6 -6 3 7 2 16 -1 19 -3 4 -6 -2 -5 -13z"/>
<path d="M3355 1699 c-3 -9 1 -34 10 -55 17 -38 17 -39 26 -15 6 16 6 27 0 30
-6 4 -14 18 -20 31 -7 21 -10 22 -16 9z"/>
<path d="M2065 1662 c-82 -23 -111 -44 -137 -100 -13 -26 -27 -45 -33 -42 -6
3 -12 -18 -15 -49 -5 -50 -2 -57 23 -82 15 -15 27 -37 27 -48 0 -11 5 -23 11
-27 6 -3 8 -16 5 -28 -4 -15 1 -26 15 -34 16 -11 18 -16 8 -34 -8 -14 -8 -23
-2 -25 6 -2 8 -14 6 -27 -3 -13 0 -32 5 -43 7 -12 7 -24 0 -37 -5 -9 -7 -20
-4 -23 11 -11 36 20 37 46 2 23 2 24 6 3 2 -12 9 -20 14 -17 5 4 9 1 9 -4 0
-6 -7 -11 -15 -11 -8 0 -15 -6 -15 -12 0 -7 -16 -23 -34 -35 -36 -23 -119 -30
-143 -11 -7 5 -14 5 -17 -1 -9 -14 4 -62 15 -55 5 3 9 -6 9 -20 0 -18 7 -27
23 -31 22 -6 49 -53 61 -107 4 -19 13 -28 27 -28 11 0 33 -7 49 -15 36 -19 38
-8 7 43 -13 20 -29 51 -36 68 -15 37 -22 116 -10 108 5 -3 9 -20 9 -38 0 -39
23 -63 65 -68 22 -2 31 -9 33 -25 6 -43 51 -36 52 8 0 16 26 19 49 5 10 -6 12
-22 7 -57 -6 -46 5 -72 20 -47 5 8 10 4 16 -11 10 -29 27 -19 20 14 -5 29 5
32 24 8 13 -17 13 -17 14 0 0 10 -7 32 -16 48 -8 17 -14 35 -12 41 5 13 78
-49 78 -66 0 -8 12 -12 30 -11 20 1 30 -3 30 -12 0 -8 5 -11 10 -8 6 3 10 16
10 28 1 22 21 57 34 57 4 0 4 -20 0 -45 -7 -50 5 -59 26 -20 13 25 25 30 66
26 30 -2 54 31 62 86 5 32 12 48 22 48 10 0 14 10 13 28 -1 17 3 27 11 27 22
0 39 28 38 61 -1 23 3 29 14 25 15 -6 14 4 -4 53 -3 9 -1 12 6 7 24 -15 78 70
67 105 -6 17 -4 20 13 15 16 -5 20 -2 20 19 0 13 -7 30 -15 37 -12 10 -18 9
-29 -7 -8 -11 -12 -26 -9 -33 3 -7 -11 -30 -30 -50 -19 -20 -35 -41 -35 -45 0
-19 -109 -117 -123 -111 -8 3 -18 1 -22 -5 -3 -6 -17 -8 -31 -5 -14 4 -31 1
-39 -6 -9 -7 -15 -8 -15 -2 0 5 -12 13 -26 16 -30 8 -54 29 -54 47 0 7 8 3 18
-9 11 -12 23 -18 31 -13 9 6 5 16 -14 39 -24 29 -25 37 -2 33 5 -1 5 4 0 11
-12 20 -12 68 1 68 6 0 3 5 -6 11 -22 12 -23 28 -3 65 18 35 20 74 3 74 -6 0
-2 10 9 23 17 18 20 34 19 92 -1 69 -2 70 -27 67 -19 -2 -31 4 -42 21 -44 67
-164 92 -282 59z m234 -59 c2 -2 -5 -3 -17 -3 -14 0 -22 6 -22 16 0 14 3 15
18 3 9 -7 19 -15 21 -16z m-9 -473 c0 -5 -7 -7 -15 -4 -8 4 -15 8 -15 10 0 2
7 4 15 4 8 0 15 -4 15 -10z m47 -5 c9 -24 -1 -27 -15 -5 -8 13 -8 20 -2 20 6
0 13 -7 17 -15z m-270 -27 c-3 -8 -6 -5 -6 6 -1 11 2 17 5 13 3 -3 4 -12 1
-19z m383 -229 c0 -5 -4 -9 -10 -9 -5 0 -10 7 -10 16 0 8 5 12 10 9 6 -3 10
-10 10 -16z m-234 -75 c-4 -9 -9 -15 -11 -12 -3 3 -3 13 1 22 4 9 9 15 11 12
3 -3 3 -13 -1 -22z"/>
<path d="M3460 1649 c0 -5 5 -7 10 -4 6 3 10 8 10 11 0 2 -4 4 -10 4 -5 0 -10
-5 -10 -11z"/>
<path d="M1093 1573 c-7 -2 -13 -11 -13 -18 0 -8 -9 -17 -20 -20 -16 -5 -19
-12 -14 -28 10 -33 15 -34 31 -9 15 22 41 32 27 10 -4 -7 -3 -8 4 -4 8 5 12
-4 13 -26 1 -33 1 -32 9 7 14 71 0 104 -37 88z"/>
<path d="M3290 1543 c0 -16 100 -99 127 -105 19 -5 20 -4 10 13 -6 10 -25 24
-42 30 -16 7 -45 26 -62 43 -18 16 -33 25 -33 19z"/>
<path d="M956 1515 c-20 -18 -26 -34 -26 -65 0 -22 5 -40 10 -40 6 0 10 -10
10 -23 0 -12 9 -28 20 -35 11 -7 20 -19 20 -27 0 -8 -9 -24 -20 -35 -22 -22
-25 -30 -10 -30 6 0 22 12 35 26 18 20 23 33 18 55 -3 17 -1 29 5 29 5 0 12
10 15 23 3 12 8 32 12 44 5 15 2 24 -12 31 -16 9 -18 5 -21 -41 -4 -58 -7 -66
-23 -50 -8 8 -8 29 0 75 17 100 14 107 -33 63z"/>
<path d="M3041 1464 c0 -11 3 -14 6 -6 3 7 2 16 -1 19 -3 4 -6 -2 -5 -13z"/>
<path d="M2778 1343 c7 -3 16 -2 19 1 4 3 -2 6 -13 5 -11 0 -14 -3 -6 -6z"/>
<path d="M1620 1230 c0 -5 5 -10 10 -10 6 0 10 5 10 10 0 6 -4 10 -10 10 -5 0
-10 -4 -10 -10z"/>
<path d="M1640 1173 c0 -14 3 -23 7 -20 3 4 15 -1 26 -10 21 -19 20 -16 -2 30
-18 34 -31 35 -31 0z"/>
<path d="M2955 1190 c3 -5 11 -10 16 -10 6 0 7 5 4 10 -3 6 -11 10 -16 10 -6
0 -7 -4 -4 -10z"/>
<path d="M1060 1175 c0 -8 5 -15 10 -15 6 0 10 7 10 15 0 8 -4 15 -10 15 -5 0
-10 -7 -10 -15z"/>
<path d="M2435 1150 c3 -5 10 -10 16 -10 5 0 9 5 9 10 0 6 -7 10 -16 10 -8 0
-12 -4 -9 -10z"/>
<path d="M1116 1103 c-6 -14 -5 -15 5 -6 7 7 10 15 7 18 -3 3 -9 -2 -12 -12z"/>
<path d="M1700 1110 c0 -5 5 -10 11 -10 5 0 7 5 4 10 -3 6 -8 10 -11 10 -2 0
-4 -4 -4 -10z"/>
<path d="M1761 1054 c0 -11 3 -14 6 -6 3 7 2 16 -1 19 -3 4 -6 -2 -5 -13z"/>
<path d="M2840 1000 c0 -5 5 -10 11 -10 5 0 7 5 4 10 -3 6 -8 10 -11 10 -2 0
-4 -4 -4 -10z"/>
<path d="M2713 853 c-7 -15 -13 -37 -13 -50 0 -24 -14 -31 -25 -13 -12 19 -26
0 -15 -20 13 -24 13 -33 0 -25 -13 8 -39 -17 -38 -36 3 -53 -21 -68 -43 -27
l-12 22 -8 -22 c-5 -12 -6 -30 -2 -40 4 -12 -1 -10 -15 7 -12 13 -23 20 -23
15 -1 -5 -2 -16 -3 -24 0 -8 -7 -14 -14 -12 -7 1 -15 -12 -19 -30 -5 -27 -7
-29 -14 -13 -4 11 -8 14 -8 6 -1 -10 -4 -11 -15 -2 -11 9 -20 6 -41 -14 -16
-14 -37 -26 -49 -26 -12 -1 -28 -2 -38 -3 -9 -1 -20 -4 -24 -8 -12 -12 -59 -9
-72 4 -9 9 -12 9 -12 -1 0 -11 -3 -11 -15 -1 -8 7 -24 10 -35 7 -11 -3 -23 -1
-26 5 -3 5 -12 7 -19 4 -7 -2 -18 1 -24 7 -10 9 -16 7 -27 -7 -13 -19 -20 -11
-15 18 3 16 -21 36 -44 36 -12 0 -30 9 -40 20 -10 11 -24 20 -32 20 -7 0 -13
7 -13 16 0 11 -6 14 -20 9 -11 -3 -20 -2 -20 3 0 10 -79 24 -93 15 -4 -2 -3
-10 2 -17 6 -7 8 -16 5 -19 -4 -4 10 -26 30 -49 53 -61 55 -65 49 -72 -3 -3 2
-8 11 -12 9 -3 16 -14 16 -24 0 -28 30 -79 50 -85 19 -6 25 -21 22 -58 -2 -14
3 -17 18 -12 15 5 23 0 32 -19 6 -14 17 -26 25 -26 7 0 18 -9 25 -20 7 -11 18
-20 25 -20 7 0 13 -5 13 -10 0 -6 15 -17 33 -25 26 -11 29 -15 15 -20 -10 -4
-18 -13 -18 -20 0 -10 -10 -12 -35 -8 -28 4 -35 2 -35 -10 0 -18 73 -43 91
-32 12 8 39 -13 39 -30 0 -7 -8 -15 -18 -17 -18 -5 -27 -38 -10 -38 4 0 8 -9
8 -20 0 -12 8 -21 23 -25 18 -4 146 -2 334 5 26 1 31 5 31 23 -1 12 -6 28 -11
35 -19 24 41 13 68 -13 14 -14 25 -21 25 -14 0 6 8 9 20 6 23 -6 27 11 5 19
-10 4 -13 14 -9 30 5 19 2 24 -12 25 -11 1 1 5 26 10 25 5 61 6 80 3 19 -4 40
-7 46 -6 6 1 24 -4 39 -12 15 -8 34 -12 41 -9 9 3 14 -2 14 -12 0 -12 5 -15
19 -10 11 3 22 2 25 -4 3 -5 15 -7 26 -4 12 3 18 8 15 11 -2 3 0 11 5 17 7 9
6 16 -4 24 -8 7 -12 21 -8 33 5 19 2 20 -30 14 -52 -10 -93 9 -112 52 -20 44
-29 102 -16 102 6 0 10 -4 10 -10 0 -5 5 -10 10 -10 15 0 12 28 -4 37 -15 9
-36 46 -36 64 0 7 6 5 13 -6 11 -14 16 -15 22 -5 5 9 -3 24 -26 45 -19 18 -40
42 -47 55 -12 20 -12 22 2 17 9 -4 21 0 28 7 7 7 20 11 29 9 12 -4 19 4 24 26
4 18 13 31 22 31 11 0 14 7 11 25 -3 15 -1 22 5 18 6 -4 8 3 4 18 -4 13 -7 30
-7 37 0 7 -23 36 -51 63 -28 27 -46 49 -41 49 5 0 15 -7 22 -15 12 -14 40 -21
40 -9 0 3 -5 14 -10 24 -12 22 -76 23 -90 0 -6 -10 -10 -2 -15 26 -4 21 -7 42
-8 46 -1 4 -8 -5 -14 -19z"/>
<path d="M2120 775 c0 -8 4 -15 9 -15 5 0 14 7 21 15 10 13 9 15 -9 15 -12 0
-21 -6 -21 -15z"/>
<path d="M2610 761 c0 -6 5 -13 10 -16 6 -3 10 1 10 9 0 9 -4 16 -10 16 -5 0
-10 -4 -10 -9z"/>
<path d="M2315 660 c-3 -5 1 -10 9 -10 8 0 18 5 21 10 3 6 -1 10 -9 10 -8 0
-18 -4 -21 -10z"/>
<path d="M2195 650 c-3 -5 -1 -10 4 -10 6 0 11 5 11 10 0 6 -2 10 -4 10 -3 0
-8 -4 -11 -10z"/>
<path d="M1912 329 c2 -7 10 -15 17 -17 8 -3 12 1 9 9 -2 7 -10 15 -17 17 -8
3 -12 -1 -9 -9z"/>
<path d="M1907 293 c-12 -12 -7 -31 10 -37 22 -9 41 10 25 26 -9 9 -12 8 -12
-6 0 -9 -4 -15 -10 -11 -5 3 -7 12 -3 20 5 16 1 20 -10 8z"/>
<path d="M1961 214 c0 -11 3 -14 6 -6 3 7 2 16 -1 19 -3 4 -6 -2 -5 -13z"/>
<path d="M2015 211 c-3 -5 -1 -12 5 -16 5 -3 10 1 10 9 0 18 -6 21 -15 7z"/>
<path d="M2070 113 c0 -36 18 -44 40 -18 10 12 9 16 -6 22 -11 3 -22 11 -26
17 -4 6 -8 -4 -8 -21z"/>
<path d="M2700 20 c0 -5 12 -10 26 -10 14 0 23 4 19 10 -3 6 -15 10 -26 10
-10 0 -19 -4 -19 -10z"/>
<path d="M2780 20 c0 -5 10 -10 23 -10 18 0 19 2 7 10 -19 13 -30 13 -30 0z"/>
<path d="M2148 13 c7 -3 16 -2 19 1 4 3 -2 6 -13 5 -11 0 -14 -3 -6 -6z"/>
</g>
</svg>
